<svg xmlns="http://www.w3.org/2000/svg" viewBox="0 0 32 32" width="32" height="32" role="img" aria-label="SimpleCRM">
  <!-- Mirrors the app's shared Logo mark (frontend/src/components/Logo.tsx):
       a Sparkles glyph in a rounded box filled with the brand highlight
       color (the bg-highlight token, #EC4899 in both themes; see
       frontend/src/theme/tokens.css). Radius 10 matches the rounded-md
       token (10px) at this 32px (h-8 w-8) size. -->
  <rect width="32" height="32" rx="10" fill="#EC4899" />
  <svg
    x="7"
    y="7"
    width="18"
    height="18"
    viewBox="0 0 24 24"
    fill="none"
    stroke="#FFFFFF"
    stroke-width="1.75"
    stroke-linecap="round"
    stroke-linejoin="round"
  >
    <path d="M9.937 15.5A2 2 0 0 0 8.5 14.063l-6.135-1.582a.5.5 0 0 1 0-.962L8.5 9.936A2 2 0 0 0 9.937 8.5l1.582-6.135a.5.5 0 0 1 .963 0L14.063 8.5A2 2 0 0 0 15.5 9.937l6.135 1.581a.5.5 0 0 1 0 .964L15.5 14.063a2 2 0 0 0-1.437 1.437l-1.582 6.135a.5.5 0 0 1-.963 0z" />
    <path d="M20 3v4" />
    <path d="M22 5h-4" />
    <path d="M4 17v2" />
    <path d="M5 18H3" />
  </svg>
</svg>
